<svg width="240" height="59" viewBox="0 0 240 59" fill="none" xmlns="http://www.w3.org/2000/svg">
<g clip-path="url(#clip0)">
<path d="M36.3383 22.5211C36.1092 22.3361 35.7732 22.3727 35.5882 22.6018C35.4033 22.8312 35.4393 23.1671 35.6687 23.352C36.945 24.3816 38.5872 26.245 38.1827 27.0419C37.4425 28.5011 34.3563 26.6649 33.6858 26.206C33.5486 26.1121 33.375 26.0872 33.2169 26.1397C33.059 26.192 32.9343 26.3148 32.8799 26.4723L31.584 30.2328C31.5808 30.2417 31.5778 30.2515 31.5752 30.2607C31.5668 30.2892 30.7319 33.1085 28.2549 33.968C25.7866 34.8245 22.389 36.6277 21.387 42.3712C21.3364 42.6611 21.448 42.9203 21.821 42.9886C22.1916 43.0561 22.3931 42.8139 22.4384 42.5544C23.3336 37.4238 26.204 35.8092 28.6048 34.976C31.5397 33.9572 32.5144 30.8503 32.5971 30.5678L33.6694 27.4556C34.5935 27.9985 36.3813 28.8836 37.7586 28.5697C38.3449 28.4355 38.8116 28.0904 39.1084 27.5718C40.1603 25.7352 36.9856 23.0424 36.3383 22.5211Z" fill="#1A1A1A"/>
<path d="M30.2939 36.1467C30.1805 35.8748 29.8682 35.7462 29.5965 35.8594C29.3245 35.9727 29.1959 36.2852 29.3093 36.5573C29.3521 36.6604 30.3935 39.1174 33.2677 42.2992C33.3728 42.4161 33.7452 42.5769 34.0211 42.3376C34.2439 42.1444 34.257 41.8026 34.0596 41.5842C31.3253 38.5567 30.3081 36.1796 30.2939 36.1467Z" fill="#1A1A1A"/>
<path d="M22.6396 33.3654C22.8986 33.2247 22.9943 32.9007 22.8535 32.6419C20.8267 28.9125 20.2644 25.7268 21.1745 23.1564L28.5285 25.4719L26.6993 31.5225C26.614 31.8046 26.7735 32.1024 27.0557 32.1874C27.1072 32.2031 27.4952 32.3371 27.7208 31.8309L29.7026 25.2756C29.7872 24.9958 29.6305 24.7001 29.352 24.6121L21.6101 22.1746C23.838 18.0451 29.7247 17.0703 29.7851 17.0607C30.0757 17.0148 30.2748 16.7421 30.2292 16.4511C30.1833 16.1601 29.9113 15.9608 29.6197 16.0064C29.3473 16.0489 22.9185 17.106 20.5385 21.9232C19.0456 24.9449 19.4955 28.7299 21.9159 33.1509C22.147 33.573 22.5588 33.4095 22.6396 33.3654Z" fill="#1A1A1A"/>
<path d="M32.1157 24.1441C33.4745 24.1441 34.5802 23.0384 34.5802 21.6794C34.5802 20.3205 33.4745 19.2148 32.1157 19.2148C30.7568 19.2148 29.6511 20.3205 29.6511 21.6794C29.6511 23.0384 30.7568 24.1441 32.1157 24.1441ZM32.1157 20.282C32.8864 20.282 33.5131 20.9088 33.5131 21.6794C33.5131 22.4501 32.8864 23.0769 32.1157 23.0769C31.3448 23.0769 30.7181 22.4501 30.7181 21.6794C30.7181 20.9088 31.3451 20.282 32.1157 20.282Z" fill="#1A1A1A"/>
</g>
<path d="M57.156 25.25V36.5H55.644V25.25H51.45V23.936H61.35V25.25H57.156ZM67.769 25.16C67.349 25.16 67.055 25.076 66.887 24.908C66.719 24.728 66.635 24.506 66.635 24.242V23.954C66.635 23.69 66.719 23.474 66.887 23.306C67.055 23.126 67.349 23.036 67.769 23.036C68.189 23.036 68.483 23.126 68.651 23.306C68.819 23.474 68.903 23.69 68.903 23.954V24.242C68.903 24.506 68.819 24.728 68.651 24.908C68.483 25.076 68.189 25.16 67.769 25.16ZM63.701 35.276H67.049V28.436H63.701V27.212H68.489V35.276H71.621V36.5H63.701V35.276ZM78.4359 36.5C77.7279 36.5 77.2059 36.302 76.8699 35.906C76.5459 35.51 76.3839 35 76.3839 34.376V28.436H73.2879V27.212H75.5919C75.9039 27.212 76.1199 27.152 76.2399 27.032C76.3719 26.9 76.4379 26.678 76.4379 26.366V23.936H77.8239V27.212H82.0539V28.436H77.8239V35.276H82.0539V36.5H78.4359ZM92.2889 36.5C91.7249 36.5 91.3229 36.356 91.0829 36.068C90.8429 35.78 90.6929 35.42 90.6329 34.988H90.5429C90.3389 35.528 90.0089 35.954 89.5529 36.266C89.1089 36.566 88.5089 36.716 87.7529 36.716C86.7809 36.716 86.0069 36.464 85.4309 35.96C84.8549 35.456 84.5669 34.766 84.5669 33.89C84.5669 33.026 84.8789 32.36 85.5029 31.892C86.1389 31.424 87.1589 31.19 88.5629 31.19H90.5429V30.272C90.5429 29.588 90.3509 29.078 89.9669 28.742C89.5829 28.394 89.0369 28.22 88.3289 28.22C87.7049 28.22 87.1949 28.346 86.7989 28.598C86.4029 28.838 86.0849 29.168 85.8449 29.588L84.8729 28.868C84.9929 28.628 85.1549 28.394 85.3589 28.166C85.5629 27.938 85.8149 27.74 86.1149 27.572C86.4149 27.392 86.7569 27.254 87.1409 27.158C87.5249 27.05 87.9509 26.996 88.4189 26.996C89.5109 26.996 90.3749 27.272 91.0109 27.824C91.6589 28.376 91.9829 29.144 91.9829 30.128V35.24H93.2789V36.5H92.2889ZM88.0049 35.51C88.3769 35.51 88.7129 35.468 89.0129 35.384C89.3249 35.288 89.5949 35.168 89.8229 35.024C90.0509 34.868 90.2249 34.688 90.3449 34.484C90.4769 34.268 90.5429 34.04 90.5429 33.8V32.27H88.5629C87.6989 32.27 87.0689 32.39 86.6729 32.63C86.2769 32.87 86.0789 33.218 86.0789 33.674V34.052C86.0789 34.532 86.2469 34.898 86.5829 35.15C86.9309 35.39 87.4049 35.51 88.0049 35.51ZM95.9359 36.5V27.212H97.3759V28.724H97.4479C97.5439 28.496 97.6639 28.28 97.8079 28.076C97.9519 27.86 98.1259 27.674 98.3299 27.518C98.5459 27.362 98.7979 27.236 99.0859 27.14C99.3739 27.044 99.7099 26.996 100.094 26.996C101.066 26.996 101.846 27.308 102.434 27.932C103.022 28.544 103.316 29.414 103.316 30.542V36.5H101.876V30.794C101.876 29.942 101.69 29.312 101.318 28.904C100.946 28.484 100.4 28.274 99.6799 28.274C99.3919 28.274 99.1099 28.31 98.8339 28.382C98.5579 28.454 98.3119 28.562 98.0959 28.706C97.8799 28.85 97.7059 29.036 97.5739 29.264C97.4419 29.492 97.3759 29.756 97.3759 30.056V36.5H95.9359ZM110.941 25.16C110.521 25.16 110.227 25.076 110.059 24.908C109.891 24.728 109.807 24.506 109.807 24.242V23.954C109.807 23.69 109.891 23.474 110.059 23.306C110.227 23.126 110.521 23.036 110.941 23.036C111.361 23.036 111.655 23.126 111.823 23.306C111.991 23.474 112.075 23.69 112.075 23.954V24.242C112.075 24.506 111.991 24.728 111.823 24.908C111.655 25.076 111.361 25.16 110.941 25.16ZM106.873 35.276H110.221V28.436H106.873V27.212H111.661V35.276H114.793V36.5H106.873V35.276ZM123.354 34.988H123.282C123.186 35.216 123.066 35.438 122.922 35.654C122.778 35.858 122.598 36.038 122.382 36.194C122.178 36.35 121.932 36.476 121.644 36.572C121.356 36.668 121.02 36.716 120.636 36.716C119.664 36.716 118.884 36.41 118.296 35.798C117.708 35.174 117.414 34.298 117.414 33.17V27.212H118.854V32.918C118.854 33.77 119.04 34.406 119.412 34.826C119.784 35.234 120.33 35.438 121.05 35.438C121.338 35.438 121.62 35.402 121.896 35.33C122.172 35.258 122.418 35.15 122.634 35.006C122.85 34.862 123.024 34.682 123.156 34.466C123.288 34.238 123.354 33.968 123.354 33.656V27.212H124.794V36.5H123.354V34.988ZM127.523 36.5V27.212H128.855V28.292H128.927C129.071 27.932 129.275 27.626 129.539 27.374C129.803 27.122 130.193 26.996 130.709 26.996C131.249 26.996 131.651 27.134 131.915 27.41C132.179 27.674 132.341 28.022 132.401 28.454H132.455C132.623 28.034 132.863 27.686 133.175 27.41C133.487 27.134 133.919 26.996 134.471 26.996C135.227 26.996 135.731 27.26 135.983 27.788C136.247 28.316 136.379 29.072 136.379 30.056V36.5H135.047V30.29C135.047 29.498 134.963 28.952 134.795 28.652C134.639 28.34 134.345 28.184 133.913 28.184C133.529 28.184 133.217 28.31 132.977 28.562C132.737 28.802 132.617 29.174 132.617 29.678V36.5H131.285V30.29C131.285 29.498 131.201 28.952 131.033 28.652C130.877 28.34 130.589 28.184 130.169 28.184C129.785 28.184 129.467 28.31 129.215 28.562C128.975 28.802 128.855 29.174 128.855 29.678V36.5H127.523ZM156.795 36.5L155.733 32.918H151.323L150.261 36.5H148.695L152.547 23.936H154.545L158.397 36.5H156.795ZM153.609 25.538H153.447L151.683 31.604H155.373L153.609 25.538ZM160.316 35.276H163.034V28.436H160.316V27.212H164.474V29.552H164.564C164.756 28.82 165.116 28.25 165.644 27.842C166.184 27.422 166.868 27.212 167.696 27.212H168.992V28.652H167.246C166.418 28.652 165.746 28.892 165.23 29.372C164.726 29.852 164.474 30.482 164.474 31.262V35.276H168.074V36.5H160.316V35.276ZM175.447 36.716C174.775 36.716 174.175 36.602 173.647 36.374C173.131 36.134 172.693 35.804 172.333 35.384C171.973 34.964 171.697 34.454 171.505 33.854C171.325 33.254 171.235 32.588 171.235 31.856C171.235 31.124 171.331 30.458 171.523 29.858C171.715 29.258 171.991 28.748 172.351 28.328C172.711 27.896 173.149 27.566 173.665 27.338C174.181 27.11 174.769 26.996 175.429 26.996C176.329 26.996 177.061 27.194 177.625 27.59C178.189 27.986 178.603 28.502 178.867 29.138L177.715 29.75C177.547 29.27 177.265 28.898 176.869 28.634C176.485 28.37 176.005 28.238 175.429 28.238C175.009 28.238 174.631 28.31 174.295 28.454C173.971 28.586 173.695 28.778 173.467 29.03C173.239 29.282 173.065 29.582 172.945 29.93C172.837 30.278 172.783 30.656 172.783 31.064V32.648C172.783 33.056 172.837 33.434 172.945 33.782C173.065 34.13 173.239 34.43 173.467 34.682C173.695 34.934 173.977 35.132 174.313 35.276C174.649 35.408 175.033 35.474 175.465 35.474C176.089 35.474 176.605 35.33 177.013 35.042C177.421 34.754 177.745 34.358 177.985 33.854L179.011 34.556C178.735 35.18 178.303 35.696 177.715 36.104C177.139 36.512 176.383 36.716 175.447 36.716ZM182.28 23.18H183.72V28.724H183.792C183.888 28.496 184.008 28.28 184.152 28.076C184.296 27.86 184.47 27.674 184.674 27.518C184.89 27.362 185.142 27.236 185.43 27.14C185.718 27.044 186.054 26.996 186.438 26.996C187.41 26.996 188.19 27.308 188.778 27.932C189.366 28.544 189.66 29.414 189.66 30.542V36.5H188.22V30.794C188.22 29.942 188.034 29.312 187.662 28.904C187.29 28.484 186.744 28.274 186.024 28.274C185.736 28.274 185.454 28.31 185.178 28.382C184.902 28.454 184.656 28.562 184.44 28.706C184.224 28.85 184.05 29.036 183.918 29.264C183.786 29.492 183.72 29.756 183.72 30.056V36.5H182.28V23.18ZM196.871 36.716C196.199 36.716 195.593 36.602 195.053 36.374C194.525 36.146 194.069 35.822 193.685 35.402C193.313 34.97 193.025 34.46 192.821 33.872C192.617 33.272 192.515 32.606 192.515 31.874C192.515 31.13 192.617 30.458 192.821 29.858C193.037 29.258 193.331 28.748 193.703 28.328C194.075 27.896 194.519 27.566 195.035 27.338C195.563 27.11 196.145 26.996 196.781 26.996C197.405 26.996 197.969 27.11 198.473 27.338C198.989 27.566 199.427 27.884 199.787 28.292C200.147 28.688 200.423 29.162 200.615 29.714C200.807 30.266 200.903 30.872 200.903 31.532V32.216H194.027V32.648C194.027 33.056 194.093 33.434 194.225 33.782C194.357 34.13 194.543 34.43 194.783 34.682C195.035 34.934 195.335 35.132 195.683 35.276C196.043 35.408 196.439 35.474 196.871 35.474C197.495 35.474 198.035 35.33 198.491 35.042C198.947 34.754 199.295 34.358 199.535 33.854L200.597 34.574C200.321 35.198 199.859 35.714 199.211 36.122C198.575 36.518 197.795 36.716 196.871 36.716ZM196.781 28.184C196.385 28.184 196.019 28.256 195.683 28.4C195.347 28.544 195.053 28.742 194.801 28.994C194.561 29.246 194.369 29.546 194.225 29.894C194.093 30.23 194.027 30.602 194.027 31.01V31.136H199.355V30.938C199.355 30.53 199.289 30.158 199.157 29.822C199.037 29.486 198.863 29.198 198.635 28.958C198.419 28.706 198.149 28.514 197.825 28.382C197.513 28.25 197.165 28.184 196.781 28.184ZM203.488 35.276H206.206V28.436H203.488V27.212H207.646V29.552H207.736C207.928 28.82 208.288 28.25 208.816 27.842C209.356 27.422 210.04 27.212 210.868 27.212H212.164V28.652H210.418C209.59 28.652 208.918 28.892 208.402 29.372C207.898 29.852 207.646 30.482 207.646 31.262V35.276H211.246V36.5H203.488V35.276ZM218.403 36.716C217.431 36.716 216.591 36.554 215.883 36.23C215.187 35.894 214.593 35.45 214.101 34.898L215.073 34.052C215.517 34.52 216.003 34.88 216.531 35.132C217.059 35.384 217.695 35.51 218.439 35.51C219.159 35.51 219.747 35.384 220.203 35.132C220.671 34.868 220.905 34.46 220.905 33.908C220.905 33.668 220.857 33.47 220.761 33.314C220.677 33.146 220.557 33.014 220.401 32.918C220.245 32.822 220.071 32.75 219.879 32.702C219.687 32.642 219.483 32.594 219.267 32.558L217.809 32.342C217.485 32.294 217.131 32.228 216.747 32.144C216.375 32.06 216.033 31.928 215.721 31.748C215.409 31.556 215.145 31.304 214.929 30.992C214.725 30.68 214.623 30.272 214.623 29.768C214.623 29.3 214.713 28.898 214.893 28.562C215.085 28.214 215.349 27.926 215.685 27.698C216.021 27.458 216.417 27.284 216.873 27.176C217.329 27.056 217.827 26.996 218.367 26.996C219.207 26.996 219.933 27.128 220.545 27.392C221.169 27.656 221.703 28.022 222.147 28.49L221.211 29.372C221.103 29.24 220.965 29.108 220.797 28.976C220.641 28.832 220.443 28.706 220.203 28.598C219.975 28.478 219.705 28.382 219.393 28.31C219.081 28.238 218.721 28.202 218.313 28.202C217.581 28.202 217.017 28.328 216.621 28.58C216.237 28.832 216.045 29.198 216.045 29.678C216.045 29.918 216.087 30.122 216.171 30.29C216.267 30.446 216.393 30.572 216.549 30.668C216.705 30.764 216.879 30.842 217.071 30.902C217.275 30.95 217.479 30.992 217.683 31.028L219.141 31.244C219.477 31.292 219.831 31.358 220.203 31.442C220.575 31.526 220.917 31.664 221.229 31.856C221.541 32.036 221.799 32.282 222.003 32.594C222.219 32.906 222.327 33.314 222.327 33.818C222.327 34.742 221.967 35.456 221.247 35.96C220.539 36.464 219.591 36.716 218.403 36.716Z" fill="#1A1A1A"/>
<defs>
<clipPath id="clip0">
<rect width="27" height="27" fill="white" transform="translate(16 16)"/>
</clipPath>
</defs>
</svg>
